REM DIRINDEX 1\2\6,1\2\7,1\2\8,1\3\9,1\3\10,1\3\11,1\4\12,1\4\13,1\4\14,1\5\15,1\5\16,1\5\17,1\5\18
REM DIRNAME folder01,folder02,folder03,folder04,folder05,folder06,folder07,folder08,folder09,folder10,folder11,folder12,folder13,folder14,folder15,folder16,folder17,folder18
TITLE ""
FILE "" MP3
  TRACK 01 AUDIO
    TITLE "16:cjc019_6495"
    INDEX 01 00:00:00
  TRACK 02 AUDIO
    TITLE "0:"
    INDEX 01 00:01:11
  TRACK 03 AUDIO
    TITLE "18:cjc019_6496"
    INDEX 01 00:02:02
  TRACK 04 AUDIO
    TITLE "0:"
    INDEX 01 00:04:54
  TRACK 05 AUDIO
    TITLE "17:cjc019_6497"
    INDEX 01 00:05:36
  TRACK 06 AUDIO
    TITLE "0:"
    INDEX 01 00:06:59
  TRACK 07 AUDIO
    TITLE "16:cjc019_6498"
    INDEX 01 00:08:40
  TRACK 08 AUDIO
    TITLE "0:"
    INDEX 01 00:10:00
  TRACK 09 AUDIO
    TITLE "18:cjc019_6499"
    INDEX 01 00:10:55
  TRACK 10 AUDIO
    TITLE "0:"
    INDEX 01 00:14:21
  TRACK 11 AUDIO
    TITLE "17:cjc019_6500"
    INDEX 01 00:15:03
  TRACK 12 AUDIO
    TITLE "0:"
    INDEX 01 00:16:32
  TRACK 13 AUDIO
    TITLE "16:cjc019_6501"
    INDEX 01 00:18:13
  TRACK 14 AUDIO
    TITLE "0:"
    INDEX 01 00:19:32
  TRACK 15 AUDIO
    TITLE "18:cjc019_6502"
    INDEX 01 00:20:16
  TRACK 16 AUDIO
    TITLE "0:"
    INDEX 01 00:22:48
  TRACK 17 AUDIO
    TITLE "17:cjc019_6503"
    INDEX 01 00:23:22
  TRACK 18 AUDIO
    TITLE "0:"
    INDEX 01 00:24:43
  TRACK 19 AUDIO
    TITLE "16:cjc019_6504"
    INDEX 01 00:26:22
  TRACK 20 AUDIO
    TITLE "0:"
    INDEX 01 00:27:61
  TRACK 21 AUDIO
    TITLE "18:cjc019_6505"
    INDEX 01 00:28:35
  TRACK 22 AUDIO
    TITLE "0:"
    INDEX 01 00:31:20
  TRACK 23 AUDIO
    TITLE "17:cjc019_6506"
    INDEX 01 00:31:73
  TRACK 24 AUDIO
    TITLE "0:"
    INDEX 01 00:33:34
  TRACK 25 AUDIO
    TITLE "16:cjc019_6507"
    INDEX 01 00:35:15
  TRACK 26 AUDIO
    TITLE "0:"
    INDEX 01 00:36:27
  TRACK 27 AUDIO
    TITLE "18:cjc019_6508"
    INDEX 01 00:37:12
  TRACK 28 AUDIO
    TITLE "0:"
    INDEX 01 00:40:46
  TRACK 29 AUDIO
    TITLE "17:cjc019_6509"
    INDEX 01 00:41:22
  TRACK 30 AUDIO
    TITLE "0:"
    INDEX 01 00:42:31
  TRACK 31 AUDIO
    TITLE "16:cjc019_6510"
    INDEX 01 00:44:20
  TRACK 32 AUDIO
    TITLE "0:"
    INDEX 01 00:45:24
  TRACK 33 AUDIO
    TITLE "18:cjc019_6511"
    INDEX 01 00:46:07
  TRACK 34 AUDIO
    TITLE "0:"
    INDEX 01 00:49:65
  TRACK 35 AUDIO
    TITLE "17:cjc019_6512"
    INDEX 01 00:50:46
  TRACK 36 AUDIO
    TITLE "0:"
    INDEX 01 00:51:54
  TRACK 37 AUDIO
    TITLE "16:cjc019_6513"
    INDEX 01 00:53:39
  TRACK 38 AUDIO
    TITLE "0:"
    INDEX 01 00:54:72
  TRACK 39 AUDIO
    TITLE "18:cjc019_6514"
    INDEX 01 00:55:44
  TRACK 40 AUDIO
    TITLE "0:"
    INDEX 01 00:57:66
  TRACK 41 AUDIO
    TITLE "17:cjc019_6515"
    INDEX 01 00:58:42
  TRACK 42 AUDIO
    TITLE "0:"
    INDEX 01 01:00:06
  TRACK 43 AUDIO
    TITLE "16:cjc019_6516"
    INDEX 01 01:01:62
  TRACK 44 AUDIO
    TITLE "0:"
    INDEX 01 01:03:10
  TRACK 45 AUDIO
    TITLE "18:cjc019_6517"
    INDEX 01 01:03:65
  TRACK 46 AUDIO
    TITLE "0:"
    INDEX 01 01:05:11
  TRACK 47 AUDIO
    TITLE "17:cjc019_6518"
    INDEX 01 01:05:62
  TRACK 48 AUDIO
    TITLE "0:"
    INDEX 01 01:07:10
  TRACK 49 AUDIO
    TITLE "16:cjc019_6519"
    INDEX 01 01:08:70
  TRACK 50 AUDIO
    TITLE "0:"
    INDEX 01 01:10:26
  TRACK 51 AUDIO
    TITLE "18:cjc019_6520"
    INDEX 01 01:11:07
  TRACK 52 AUDIO
    TITLE "0:"
    INDEX 01 01:13:26
  TRACK 53 AUDIO
    TITLE "17:cjc019_6521"
    INDEX 01 01:14:02
  TRACK 54 AUDIO
    TITLE "0:"
    INDEX 01 01:15:40
  TRACK 55 AUDIO
    TITLE "16:cjc019_6522"
    INDEX 01 01:17:20
  TRACK 56 AUDIO
    TITLE "0:"
    INDEX 01 01:18:47
  TRACK 57 AUDIO
    TITLE "18:cjc019_6523"
    INDEX 01 01:19:25
  TRACK 58 AUDIO
    TITLE "0:"
    INDEX 01 01:21:41
  TRACK 59 AUDIO
    TITLE "17:cjc019_6524"
    INDEX 01 01:22:13
  TRACK 60 AUDIO
    TITLE "0:"
    INDEX 01 01:23:44
  TRACK 61 AUDIO
    TITLE "16:cjc019_6525"
    INDEX 01 01:25:23
  TRACK 62 AUDIO
    TITLE "0:"
    INDEX 01 01:26:38
  TRACK 63 AUDIO
    TITLE "18:cjc019_6526"
    INDEX 01 01:27:22
  TRACK 64 AUDIO
    TITLE "0:"
    INDEX 01 01:31:18
  TRACK 65 AUDIO
    TITLE "17:cjc019_6527"
    INDEX 01 01:31:71
  TRACK 66 AUDIO
    TITLE "0:"
    INDEX 01 01:33:15
  TRACK 67 AUDIO
    TITLE "16:cjc019_6528"
    INDEX 01 01:35:00
  TRACK 68 AUDIO
    TITLE "0:"
    INDEX 01 01:36:11
  TRACK 69 AUDIO
    TITLE "18:cjc019_6529"
    INDEX 01 01:36:68
  TRACK 70 AUDIO
    TITLE "0:"
    INDEX 01 01:39:19
  TRACK 71 AUDIO
    TITLE "17:cjc019_6530"
    INDEX 01 01:39:74
  TRACK 72 AUDIO
    TITLE "0:"
    INDEX 01 01:41:12
  TRACK 73 AUDIO
    TITLE "16:cjc019_6531"
    INDEX 01 01:42:65
  TRACK 74 AUDIO
    TITLE "0:"
    INDEX 01 01:44:15
  TRACK 75 AUDIO
    TITLE "18:cjc019_6532"
    INDEX 01 01:44:60
  TRACK 76 AUDIO
    TITLE "0:"
    INDEX 01 01:47:44
  TRACK 77 AUDIO
    TITLE "17:cjc019_6533"
    INDEX 01 01:48:16
  TRACK 78 AUDIO
    TITLE "0:"
    INDEX 01 01:49:41
  TRACK 79 AUDIO
    TITLE "16:cjc019_6534"
    INDEX 01 01:51:17
  TRACK 80 AUDIO
    TITLE "0:"
    INDEX 01 01:52:24
  TRACK 81 AUDIO
    TITLE "18:cjc019_6535"
    INDEX 01 01:53:06
  TRACK 82 AUDIO
    TITLE "0:"
    INDEX 01 01:57:51
  TRACK 83 AUDIO
    TITLE "17:cjc019_6536"
    INDEX 01 01:58:29
  TRACK 84 AUDIO
    TITLE "0:"
    INDEX 01 01:59:46
  TRACK 85 AUDIO
    TITLE "16:cjc019_6537"
    INDEX 01 02:01:21
  TRACK 86 AUDIO
    TITLE "0:"
    INDEX 01 02:02:44
  TRACK 87 AUDIO
    TITLE "18:cjc019_6538"
    INDEX 01 02:03:26
  TRACK 88 AUDIO
    TITLE "0:"
    INDEX 01 02:06:59
  TRACK 89 AUDIO
    TITLE "17:cjc019_6539"
    INDEX 01 02:07:37
  TRACK 90 AUDIO
    TITLE "0:"
    INDEX 01 02:08:70
  TRACK 91 AUDIO
    TITLE "16:cjc019_6540"
    INDEX 01 02:10:57
  TRACK 92 AUDIO
    TITLE "0:"
    INDEX 01 02:11:63
  TRACK 93 AUDIO
    TITLE "18:cjc019_6541"
    INDEX 01 02:12:50
  TRACK 94 AUDIO
    TITLE "0:"
    INDEX 01 02:15:19
  TRACK 95 AUDIO
    TITLE "17:cjc019_6542"
    INDEX 01 02:15:70
  TRACK 96 AUDIO
    TITLE "0:"
    INDEX 01 02:17:04
  TRACK 97 AUDIO
    TITLE "16:cjc019_6543"
    INDEX 01 02:18:63
  TRACK 98 AUDIO
    TITLE "0:"
    INDEX 01 02:20:03
  TRACK 99 AUDIO
    TITLE "18:cjc019_6544"
    INDEX 01 02:20:60
  TRACK 100 AUDIO
    TITLE "0:"
    INDEX 01 02:23:15
  TRACK 101 AUDIO
    TITLE "17:cjc019_6545"
    INDEX 01 02:23:70
  TRACK 102 AUDIO
    TITLE "0:"
    INDEX 01 02:25:08
  TRACK 103 AUDIO
    TITLE "16:cjc019_6546"
    INDEX 01 02:26:68
  TRACK 104 AUDIO
    TITLE "0:"
    INDEX 01 02:28:35
  TRACK 105 AUDIO
    TITLE "18:cjc019_6547"
    INDEX 01 02:29:17
  TRACK 106 AUDIO
    TITLE "0:"
    INDEX 01 02:30:44
  TRACK 107 AUDIO
    TITLE "17:cjc019_6548"
    INDEX 01 02:31:18
  TRACK 108 AUDIO
    TITLE "0:"
    INDEX 01 02:32:61
